HIERARCHY
ROOT hip
{
  OFFSET -165.33 85.5216 0.572682
  CHANNELS 6 Xposition Yposition Zposition Zrotation Xrotation Yrotation
  JOINT abdomen
  {
    OFFSET 0 20.6881 -0.73152
    CHANNELS 3 Zrotation Xrotation Yrotation
    JOINT chest
    {
      OFFSET 0 11.7043 -0.48768
      CHANNELS 3 Zrotation Xrotation Yrotation
      JOINT neck
      {
        OFFSET 0 22.1894 -2.19456
        CHANNELS 3 Zrotation Xrotation Yrotation
        JOINT head
        {
          OFFSET -0.24384 7.07133 1.2192
          CHANNELS 3 Zrotation Xrotation Yrotation
          JOINT leftEye
          {
            OFFSET 4.14528 8.04674 8.04672
            CHANNELS 3 Zrotation Xrotation Yrotation
            End Site
            {
              OFFSET 1 0 0
            }
          }
          JOINT rightEye
          {
            OFFSET -3.6576 8.04674 8.04672
            CHANNELS 3 Zrotation Xrotation Yrotation
            End Site
            {
              OFFSET 1 0 0
            }
          }
        }
      }
      JOINT rCollar
      {
        OFFSET -2.68224 19.2634 -4.8768
        CHANNELS 3 Zrotation Xrotation Yrotation
        JOINT rShldr
        {
          OFFSET -8.77824 -1.95073 1.46304
          CHANNELS 3 Zrotation Xrotation Yrotation
          JOINT rForeArm
          {
            OFFSET -28.1742 -1.7115 0.48768
            CHANNELS 3 Zrotation Xrotation Yrotation
            JOINT rHand
            {
              OFFSET -22.5879 0.773209 7.07136
              CHANNELS 3 Zrotation Xrotation Yrotation
              JOINT rThumb1
              {
                OFFSET -1.2192 -0.487915 3.41376
                CHANNELS 3 Zrotation Xrotation Yrotation
                JOINT rThumb2
                {
                  OFFSET -3.37035 -0.52449 3.41376
                  CHANNELS 3 Zrotation Xrotation Yrotation
                  End Site
                  {
                    OFFSET -1.78271 -1.18214 1.43049
                  }
                }
              }
              JOINT rIndex1
              {
                OFFSET -7.75947 0.938293 5.60832
                CHANNELS 3 Zrotation Xrotation Yrotation
                JOINT rIndex2
                {
                  OFFSET -2.54057 -0.884171 1.56538
                  CHANNELS 3 Zrotation Xrotation Yrotation
                  End Site
                  {
                    OFFSET -1.62519 -0.234802 1.16502
                  }
                }
              }
              JOINT rMid1
              {
                OFFSET -8.24714 1.18213 3.41376
                CHANNELS 3 Zrotation Xrotation Yrotation
                JOINT rMid2
                {
                  OFFSET -3.10165 -0.590103 1.0647
                  CHANNELS 3 Zrotation Xrotation Yrotation
                  End Site
                  {
                    OFFSET -2.48547 -0.328903 0.83742
                  }
                }
              }
              JOINT rRing1
              {
                OFFSET -8.82822 0.546677 1.51678
                CHANNELS 3 Zrotation Xrotation Yrotation
                JOINT rRing2
                {
                  OFFSET -2.60934 -0.819778 -0.0198488
                  CHANNELS 3 Zrotation Xrotation Yrotation
                  End Site
                  {
                    OFFSET -2.33842 -0.294052 0.168128
                  }
                }
              }
              JOINT rPinky1
              {
                OFFSET -8.27202 -0.0477905 -0.4584
                CHANNELS 3 Zrotation Xrotation Yrotation
                JOINT rPinky2
                {
                  OFFSET -1.82734 -0.647385 -0.700984
                  CHANNELS 3 Zrotation Xrotation Yrotation
                  End Site
                  {
                    OFFSET -1.69225 -0.51767 -0.607171
                  }
                }
              }
            }
          }
        }
      }
      JOINT lCollar
      {
        OFFSET 2.68224 19.2634 -4.8768
        CHANNELS 3 Zrotation Xrotation Yrotation
        JOINT lShldr
        {
          OFFSET 8.77824 -1.95073 1.46304
          CHANNELS 3 Zrotation Xrotation Yrotation
          JOINT lForeArm
          {
            OFFSET 28.1742 -1.7115 0.48768
            CHANNELS 3 Zrotation Xrotation Yrotation
            JOINT lHand
            {
              OFFSET 22.5879 0.773209 7.07136
              CHANNELS 3 Zrotation Xrotation Yrotation
              JOINT lThumb1
              {
                OFFSET 1.2192 -0.487915 3.41376
                CHANNELS 3 Zrotation Xrotation Yrotation
                JOINT lThumb2
                {
                  OFFSET 3.37035 -0.52449 3.41376
                  CHANNELS 3 Zrotation Xrotation Yrotation
                  End Site
                  {
                    OFFSET 1.78271 -1.18214 1.43049
                  }
                }
              }
              JOINT lIndex1
              {
                OFFSET 7.75947 0.938293 5.60832
                CHANNELS 3 Zrotation Xrotation Yrotation
                JOINT lIndex2
                {
                  OFFSET 2.54057 -0.884171 1.56538
                  CHANNELS 3 Zrotation Xrotation Yrotation
                  End Site
                  {
                    OFFSET 1.62519 -0.234802 1.16502
                  }
                }
              }
              JOINT lMid1
              {
                OFFSET 8.24714 1.18213 3.41376
                CHANNELS 3 Zrotation Xrotation Yrotation
                JOINT lMid2
                {
                  OFFSET 3.10165 -0.590103 1.0647
                  CHANNELS 3 Zrotation Xrotation Yrotation
                  End Site
                  {
                    OFFSET 2.48547 -0.328903 0.83742
                  }
                }
              }
              JOINT lRing1
              {
                OFFSET 8.82822 0.546677 1.51678
                CHANNELS 3 Zrotation Xrotation Yrotation
                JOINT lRing2
                {
                  OFFSET 2.60934 -0.819778 -0.0198488
                  CHANNELS 3 Zrotation Xrotation Yrotation
                  End Site
                  {
                    OFFSET 2.33842 -0.294052 0.168128
                  }
                }
              }
              JOINT lPinky1
              {
                OFFSET 8.27202 -0.0477905 -0.4584
                CHANNELS 3 Zrotation Xrotation Yrotation
                JOINT lPinky2
                {
                  OFFSET 1.82734 -0.647385 -0.700984
                  CHANNELS 3 Zrotation Xrotation Yrotation
                  End Site
                  {
                    OFFSET 1.69225 -0.51767 -0.607171
                  }
                }
              }
            }
          }
        }
      }
    }
  }
  JOINT rButtock
  {
    OFFSET -8.77824 4.35084 1.2192
    CHANNELS 3 Zrotation Xrotation Yrotation
    JOINT rThigh
    {
      OFFSET 0 -1.70687 -2.19456
      CHANNELS 3 Zrotation Xrotation Yrotation
      JOINT rShin
      {
        OFFSET 0 -36.8199 0.73152
        CHANNELS 3 Zrotation Xrotation Yrotation
        JOINT rFoot
        {
          OFFSET 0.73152 -45.1104 -5.12064
          CHANNELS 3 Zrotation Xrotation Yrotation
          End Site
          {
            OFFSET -1.1221 -3.69964 12.103
          }
        }
      }
    }
  }
  JOINT lButtock
  {
    OFFSET 8.77824 4.35084 1.2192
    CHANNELS 3 Zrotation Xrotation Yrotation
    JOINT lThigh
    {
      OFFSET 0 -1.70687 -2.19456
      CHANNELS 3 Zrotation Xrotation Yrotation
      JOINT lShin
      {
        OFFSET 0 -36.8199 0.73152
        CHANNELS 3 Zrotation Xrotation Yrotation
        JOINT lFoot
        {
          OFFSET -0.73152 -45.1104 -5.12064
          CHANNELS 3 Zrotation Xrotation Yrotation
          End Site
          {
            OFFSET 1.1221 -3.69964 12.103
          }
        }
      }
    }
  }
}
MOTION
Frames:	8
Frame Time:	0.00833333
256.047 80.3696 -40.5699 5.17799 -3.17423 21.4016 -3.44687 11.3499 9.20828 -1.33815 -2.03196 2.65035 -7.4584 -1.68477 -8.41516 19.2344 11.8543 -16.0908 -0 0 0 -0 0 0 4.80754e-014 -1.52669e-013 1.87702e-013 69.3728 35.3562 14.6698 -19.1812 -12.0155 36.7273 -0.00130577 -1.03176 -0.14502 -4.95206e-010 2.2698e-009 -5.45188e-010 -8.53285e-010 3.92851e-009 -9.43663e-010 -4.95206e-010 2.2698e-009 -5.45198e-010 7.73091 5.47488 0.417314 -4.9521e-010 2.2698e-009 -5.45195e-010 2.90554 0.965183 0.102902 -4.95202e-010 2.2698e-009 -5.45192e-010 10.2786 0.731801 0.0259123 -4.95208e-010 2.26981e-009 -5.45188e-010 2.22167 -0.733487 -0.20892 4.81395e-014 -1.52664e-013 1.87553e-013 -77.9109 20.4613 6.93025 9.15091 -3.6411 -16.2185 1.74902 34.7254 -5.58989 4.27307e-010 -6.46766e-011 -6.41123e-010 7.22317e-010 -1.10664e-010 -1.11784e-009 4.27305e-010 -6.46746e-011 -6.41108e-010 -7.73091 5.47488 -0.417314 4.27312e-010 -6.46737e-011 -6.41114e-010 -2.90554 0.965183 -0.102902 4.27303e-010 -6.46733e-011 -6.41123e-010 -10.2786 0.731801 -0.0259123 4.27314e-010 -6.46722e-011 -6.41139e-010 -2.22167 -0.733487 0.20892 -2.03217e-016 0 -3.88251e-019 11.829 16.608 8.33721 0.079806 18.8162 0.88179 4.9183 -19.3533 16.7101 2.03217e-016 0 3.88251e-019 4.91945 -17.9851 -3.19972 0.114427 22.9395 -0.650112 0.39654 -1.81282 -1.09116 
256.804 80.5042 -39.8412 6.1539 -3.08121 20.8822 -4.7945 11.6557 9.07472 -1.02575 -2.15851 2.58539 -7.35056 -1.80599 -8.38043 18.9927 12.0794 -16.0641 -0 0 0 -0 0 0 -4.50451e-014 -8.62589e-014 3.95082e-013 70.2284 35.1277 13.9406 -18.8033 -11.5761 35.8522 -0.00136571 -0.913018 -0.128318 -6.57494e-010 1.53038e-009 -3.04697e-010 -1.13494e-009 2.64803e-009 -5.2754e-010 -6.57494e-010 1.53037e-009 -3.04707e-010 7.73091 5.47488 0.417314 -6.57497e-010 1.53038e-009 -3.04703e-010 2.90554 0.965183 0.102902 -6.5749e-010 1.53038e-009 -3.047e-010 10.2786 0.731801 0.0259123 -6.57496e-010 1.53038e-009 -3.04695e-010 2.22167 -0.733487 -0.20892 -4.49922e-014 -8.62545e-014 3.94928e-013 -77.27 20.807 6.2313 9.30415 -3.72964 -16.5021 1.62571 33.6603 -5.37025 -2.97771e-010 -1.57299e-010 1.20655e-010 -5.07583e-010 -2.58365e-010 2.15973e-010 -2.97774e-010 -1.57296e-010 1.20667e-010 -7.73091 5.47488 -0.417314 -2.97767e-010 -1.57295e-010 1.20662e-010 -2.90554 0.965183 -0.102902 -2.97777e-010 -1.57295e-010 1.20655e-010 -10.2786 0.731801 -0.0259123 -2.97765e-010 -1.57294e-010 1.20641e-010 -2.22167 -0.733487 0.20892 -2.03217e-016 0 -3.88251e-019 12.445 16.9007 8.30697 0.0918621 17.8857 0.865217 5.14724 -19.9474 17.0301 2.03217e-016 0 3.88251e-019 3.58621 -16.8844 -2.98641 0.114892 22.8889 -0.656244 0.435094 -2.31828 -0.810391 
257.49 80.6602 -39.1675 7.12362 -2.9654 20.3782 -6.13007 11.9449 8.85829 -0.68548 -2.30479 2.49779 -7.19079 -1.8894 -8.31798 18.6311 12.1955 -15.9716 -0 0 0 -0 0 0 -1.7658e-013 2.83502e-014 6.01429e-013 70.9724 34.9984 13.2756 -18.4264 -11.1509 34.9883 -0.00170782 -0.748426 -0.105168 -5.46059e-010 -1.65433e-011 2.12579e-010 -9.43938e-010 -2.948e-011 3.67399e-010 -5.46057e-010 -1.65523e-011 2.12569e-010 7.73091 5.47488 0.417314 -5.4606e-010 -1.65452e-011 2.12575e-010 2.90554 0.965183 0.102902 -5.46053e-010 -1.65425e-011 2.12577e-010 10.2786 0.731801 0.0259123 -5.4606e-010 -1.65394e-011 2.12587e-010 2.22167 -0.733487 -0.20892 -1.7657e-013 2.83532e-014 6.01255e-013 -76.6473 21.0394 5.56658 9.48259 -3.83335 -16.8339 1.50903 32.5955 -5.1561 -9.30499e-010 -3.26241e-010 1.22335e-009 -1.57117e-009 -5.40119e-010 2.13409e-009 -9.30502e-010 -3.26238e-010 1.22336e-009 -7.73091 5.47488 -0.417314 -9.30496e-010 -3.26236e-010 1.22336e-009 -2.90554 0.965183 -0.102902 -9.30507e-010 -3.26235e-010 1.22336e-009 -10.2786 0.731801 -0.0259123 -9.30496e-010 -3.26235e-010 1.22335e-009 -2.22167 -0.733487 0.20892 -2.03217e-016 0 -3.88251e-019 13.4133 17.4437 8.2886 0.111017 16.2714 0.842506 5.56795 -20.923 17.5737 2.03217e-016 0 3.88251e-019 2.19888 -15.7591 -2.90506 0.114459 22.6919 -0.665183 0.501765 -2.82295 -0.392391 
258.299 80.8181 -38.4902 8.07104 -2.82432 19.8354 -7.45531 12.1947 8.63516 -0.348347 -2.41316 2.4019 -7.04909 -1.95982 -8.24252 18.2589 12.234 -15.8354 -0 0 0 -0 0 0 -2.88197e-013 1.28784e-013 7.66327e-013 71.6479 34.8472 12.6647 -18.0422 -10.731 34.117 -0.00139201 -0.468526 -0.065823 -4.35921e-010 -1.48807e-009 7.18745e-010 -7.55045e-010 -2.57719e-009 1.24355e-009 -4.35918e-010 -1.48808e-009 7.18736e-010 7.73091 5.47488 0.417314 -4.35922e-010 -1.48807e-009 7.18743e-010 2.90554 0.965183 0.102902 -4.35914e-010 -1.48807e-009 7.18744e-010 10.2786 0.731801 0.0259123 -4.35922e-010 -1.48807e-009 7.18758e-010 2.22167 -0.733487 -0.20892 -2.88234e-013 1.28785e-013 7.66133e-013 -76.0345 21.1829 4.89232 9.67192 -3.94451 -17.1874 1.39555 31.5065 -4.94218 -1.46231e-009 -5.64046e-010 2.14842e-009 -2.46535e-009 -9.44522e-010 3.74226e-009 -1.46231e-009 -5.64043e-010 2.14842e-009 -7.73091 5.47488 -0.417314 -1.46231e-009 -5.64041e-010 2.14842e-009 -2.90554 0.965183 -0.102902 -1.46232e-009 -5.6404e-010 2.14842e-009 -10.2786 0.731801 -0.0259123 -1.46231e-009 -5.6404e-010 2.14842e-009 -2.22167 -0.733487 0.20892 -2.03217e-016 0 -3.88251e-019 13.6592 17.5141 8.25706 0.113195 15.9738 0.82914 5.62613 -21.1052 17.6815 2.03217e-016 0 3.88251e-019 0.8454 -14.7221 -2.84676 0.114185 22.4913 -0.661676 0.573372 -3.34901 0.0766534 
258.87 80.9657 -37.8637 8.98073 -2.65511 19.1998 -8.77374 12.3821 8.48183 -0.0448737 -2.42594 2.31205 -6.99547 -2.04209 -8.16872 17.9855 12.2259 -15.6779 -0 0 0 -0 0 0 -3.21565e-013 1.52666e-013 8.49357e-013 72.291 34.552 12.1021 -17.6413 -10.3062 33.2205 -1.85991e-008 -0.00386205 -0.000542775 -6.02104e-010 -2.00131e-009 9.25907e-010 -1.04303e-009 -3.46827e-009 1.60332e-009 -6.021e-010 -2.00133e-009 9.25898e-010 7.73091 5.47488 0.417314 -6.02104e-010 -2.00132e-009 9.25907e-010 2.90554 0.965183 0.102902 -6.02097e-010 -2.00131e-009 9.25907e-010 10.2786 0.731801 0.0259123 -6.02106e-010 -2.00131e-009 9.25923e-010 2.22167 -0.733487 -0.20892 -3.21624e-013 1.52666e-013 8.49158e-013 -75.4218 21.2612 4.16426 9.85819 -4.05557 -17.5358 1.28276 30.3693 -4.72386 -1.88463e-009 -8.6326e-010 2.37729e-009 -3.18701e-009 -1.46017e-009 4.1462e-009 -1.88464e-009 -8.63257e-010 2.37729e-009 -7.73091 5.47488 -0.417314 -1.88463e-009 -8.63254e-010 2.37729e-009 -2.90554 0.965183 -0.102902 -1.88465e-009 -8.63253e-010 2.37729e-009 -10.2786 0.731801 -0.0259123 -1.88464e-009 -8.63253e-010 2.37729e-009 -2.22167 -0.733487 0.20892 -2.03217e-016 0 -3.88251e-019 12.1056 16.3887 8.18869 0.0755675 18.9935 0.840651 4.77809 -19.3161 16.7003 2.03217e-016 0 3.88251e-019 -0.393964 -13.8863 -2.70441 0.115305 22.4299 -0.630518 0.624363 -3.91872 0.510476 
259.389 81.1176 -37.2005 9.91508 -2.41748 18.3951 -10.1959 12.4715 8.46884 0.220463 -2.28807 2.23693 -7.09359 -2.14115 -8.10107 17.8725 12.1473 -15.4906 -0 0 0 -0 0 0 -2.18673e-013 4.09247e-014 8.15004e-013 72.9348 33.9199 11.6477 -17.1796 -9.83707 32.1918 0.00159298 0.806304 0.113258 -1.365e-009 -8.20708e-010 6.06614e-010 -2.36138e-009 -1.43217e-009 1.05447e-009 -1.365e-009 -8.20724e-010 6.06604e-010 7.73091 5.47488 0.417314 -1.365e-009 -8.20716e-010 6.06616e-010 2.90554 0.965183 0.102902 -1.365e-009 -8.20712e-010 6.06614e-010 10.2786 0.731801 0.0259123 -1.36501e-009 -8.2071e-010 6.06629e-010 2.22167 -0.733487 -0.20892 -2.18713e-013 4.09244e-014 8.14823e-013 -74.8286 21.211 3.35282 10.0346 -4.16217 -17.8666 1.17653 29.2191 -4.50883 -2.26001e-009 -1.36769e-009 1.38941e-009 -3.85543e-009 -2.3391e-009 2.44836e-009 -2.26002e-009 -1.36768e-009 1.38941e-009 -7.73091 5.47488 -0.417314 -2.26001e-009 -1.36768e-009 1.38941e-009 -2.90554 0.965183 -0.102902 -2.26003e-009 -1.36768e-009 1.38942e-009 -10.2786 0.731801 -0.0259123 -2.26002e-009 -1.36768e-009 1.38941e-009 -2.22167 -0.733487 0.20892 -2.03217e-016 0 -3.88251e-019 7.46024 13.4012 8.16871 -0.0399305 27.5123 0.910382 2.74476 -13.9904 14.1312 2.03217e-016 0 3.88251e-019 -1.55476 -13.3719 -2.42088 0.119029 22.6187 -0.553161 0.637536 -4.57707 0.900195 
259.855 81.2545 -36.5383 10.8656 -2.12406 17.4713 -11.6846 12.485 8.53881 0.463405 -2.04351 2.16733 -7.29108 -2.24433 -8.03154 17.8518 11.9918 -15.2668 -0 0 0 -0 0 0 -2.47839e-014 -1.59027e-013 6.93069e-013 73.5468 33.071 11.2891 -16.6709 -9.33745 31.0756 -0.000648456 1.87751 0.263833 -2.49559e-009 1.41615e-009 -3.5364e-011 -4.31459e-009 2.42901e-009 -5.11116e-011 -2.49558e-009 1.41614e-009 -3.53741e-011 7.73091 5.47488 0.417314 -2.49559e-009 1.41614e-009 -3.53591e-011 2.90554 0.965183 0.102902 -2.49558e-009 1.41615e-009 -3.53638e-011 10.2786 0.731801 0.0259123 -2.49559e-009 1.41615e-009 -3.53523e-011 2.22167 -0.733487 -0.20892 -2.47804e-014 -1.59028e-013 6.9292e-013 -74.2609 21.0413 2.49047 10.2096 -4.26911 -18.1959 1.07641 28.055 -4.29652 -2.57141e-009 -2.0327e-009 -4.11227e-010 -4.43224e-009 -3.50237e-009 -6.54643e-010 -2.57141e-009 -2.0327e-009 -4.11221e-010 -7.73091 5.47488 -0.417314 -2.57141e-009 -2.0327e-009 -4.11228e-010 -2.90554 0.965183 -0.102902 -2.57142e-009 -2.0327e-009 -4.11226e-010 -10.2786 0.731801 -0.0259123 -2.57141e-009 -2.0327e-009 -4.1123e-010 -2.22167 -0.733487 0.20892 -2.03217e-016 0 -3.88251e-019 0.636745 9.09694 8.21425 -0.265975 39.9133 1.08229 0.635234 -5.97373 10.8074 2.03217e-016 0 3.88251e-019 -2.66022 -13.0883 -2.06195 0.123289 22.9571 -0.442128 0.631885 -5.29901 1.28752 
260.327 81.3982 -35.9011 11.7061 -1.85316 16.5628 -13.0224 12.4856 8.57652 0.683837 -1.78311 2.0907 -7.48381 -2.35004 -7.95611 17.8385 11.8176 -15.031 -0 0 0 -0 0 0 1.63525e-013 -3.49836e-013 5.41114e-013 74.0654 32.3508 10.9098 -16.2018 -8.88545 30.0783 -0.00799536 2.9114 0.409428 -3.44474e-009 3.53246e-009 -6.41091e-010 -5.95394e-009 6.0831e-009 -1.0948e-009 -3.44474e-009 3.53245e-009 -6.41101e-010 7.73091 5.47488 0.417314 -3.44474e-009 3.53245e-009 -6.41084e-010 2.90554 0.965183 0.102902 -3.44474e-009 3.53245e-009 -6.41091e-010 10.2786 0.731801 0.0259123 -3.44475e-009 3.53246e-009 -6.41083e-010 2.22167 -0.733487 -0.20892 1.63571e-013 -3.49836e-013 5.40997e-013 -73.6818 20.8845 1.62337 10.3921 -4.38251 -18.5399 0.973111 26.7978 -4.07169 -2.69089e-009 -2.56822e-009 -2.15636e-009 -4.67783e-009 -4.44211e-009 -3.66573e-009 -2.69089e-009 -2.56822e-009 -2.15635e-009 -7.73091 5.47488 -0.417314 -2.69089e-009 -2.56821e-009 -2.15636e-009 -2.90554 0.965183 -0.102902 -2.6909e-009 -2.56821e-009 -2.15636e-009 -10.2786 0.731801 -0.0259123 -2.69089e-009 -2.56821e-009 -2.15637e-009 -2.22167 -0.733487 0.20892 -2.03217e-016 0 -3.88251e-019 -6.16308 4.56486 8.19106 -0.638088 52.4989 1.40339 -0.55521 2.12796 7.71555 2.03217e-016 0 3.88251e-019 -3.61666 -12.8321 -1.70614 0.12535 23.271 -0.329151 0.632087 -6.00186 1.66179 
